<svg xmlns="http://www.w3.org/2000/svg" xmlns:xlink="http://www.w3.org/1999/xlink" width="230" zoomAndPan="magnify" viewBox="0 0 172.5 172.499994" height="230" preserveAspectRatio="xMidYMid meet" version="1.0"><defs><clipPath id="7e6d1db359"><path d="M 56 46 L 134 46 L 134 159.835938 L 56 159.835938 Z M 56 46 " clip-rule="nonzero"/></clipPath><clipPath id="1f58625271"><path d="M 78 12.511719 L 82 12.511719 L 82 40 L 78 40 Z M 78 12.511719 " clip-rule="nonzero"/></clipPath></defs><path fill="#ffffff" d="M 0 0 L 172 0 L 172 172 L 0 172 Z M 0 0 " fill-opacity="1" fill-rule="nonzero"/><path fill="#ffffff" d="M 0 0 L 172 0 L 172 172 L 0 172 Z M 0 0 " fill-opacity="1" fill-rule="nonzero"/><g clip-path="url(#7e6d1db359)"><path fill="#000000" d="M 56.359375 118.496094 L 56.359375 120.503906 C 56.359375 130.386719 59.152344 148.253906 77.863281 156.835938 C 82.578125 159 87.742188 159.324219 92.734375 159.632812 C 94.574219 159.746094 96.554688 159.835938 98.628906 159.835938 C 104.40625 159.835938 110.898438 159.160156 116.941406 156.53125 C 127.65625 151.863281 133.964844 140.972656 133.820312 127.417969 L 133.820312 95.082031 C 133.820312 90.230469 129.753906 86.28125 124.75 86.28125 C 122.511719 86.28125 120.460938 87.078125 118.878906 88.390625 L 118.878906 85.019531 C 118.878906 80.007812 114.808594 75.933594 109.808594 75.933594 C 107.425781 75.933594 105.265625 76.863281 103.644531 78.371094 C 102.644531 74.445312 99.09375 71.527344 94.867188 71.527344 C 92.628906 71.527344 90.578125 72.351562 88.996094 73.703125 L 88.996094 55.292969 C 88.996094 50.28125 84.929688 46.207031 79.925781 46.207031 C 74.925781 46.207031 70.859375 50.28125 70.859375 55.292969 L 70.859375 99.957031 C 62.566406 100.199219 56.359375 108.078125 56.359375 118.496094 Z M 70.859375 103.15625 L 70.859375 115.335938 C 70.859375 116.222656 71.574219 116.9375 72.457031 116.9375 C 73.339844 116.9375 74.054688 116.222656 74.054688 115.335938 L 74.054688 55.292969 C 74.054688 52.050781 76.6875 49.40625 79.929688 49.40625 C 83.164062 49.40625 85.800781 52.046875 85.800781 55.292969 L 85.800781 100.210938 C 85.800781 101.097656 86.515625 101.8125 87.398438 101.8125 C 88.28125 101.8125 88.996094 101.097656 88.996094 100.210938 L 88.996094 80.613281 C 88.996094 77.371094 91.628906 74.730469 94.867188 74.730469 C 98.105469 74.730469 100.738281 77.371094 100.738281 80.613281 L 100.738281 102.632812 C 100.738281 103.519531 101.457031 104.234375 102.335938 104.234375 C 103.21875 104.234375 103.933594 103.515625 103.933594 102.632812 L 103.933594 85.019531 C 103.933594 81.773438 106.570312 79.132812 109.808594 79.132812 C 113.042969 79.132812 115.679688 81.773438 115.679688 85.019531 L 115.679688 104.835938 C 115.679688 105.722656 116.394531 106.4375 117.277344 106.4375 C 118.160156 106.4375 118.875 105.71875 118.875 104.835938 L 118.875 95.082031 C 118.875 91.992188 121.507812 89.480469 124.746094 89.480469 C 127.984375 89.480469 130.621094 91.992188 130.621094 95.082031 L 130.621094 127.433594 C 130.753906 139.859375 125.300781 149.390625 115.664062 153.59375 C 108.074219 156.894531 99.527344 156.84375 92.929688 156.4375 C 88.226562 156.144531 83.363281 155.839844 79.1875 153.925781 C 62.105469 146.085938 59.550781 129.621094 59.550781 120.503906 L 59.550781 118.496094 C 59.554688 109.914062 64.390625 103.414062 70.859375 103.15625 Z M 70.859375 103.15625 " fill-opacity="1" fill-rule="nonzero"/></g><path fill="#000000" d="M 39.632812 56.167969 L 63.664062 56.167969 C 64.546875 56.167969 65.261719 55.449219 65.261719 54.566406 C 65.261719 53.679688 64.546875 52.964844 63.664062 52.964844 L 39.632812 52.964844 C 38.75 52.964844 38.035156 53.683594 38.035156 54.566406 C 38.035156 55.449219 38.75 56.167969 39.632812 56.167969 Z M 39.632812 56.167969 " fill-opacity="1" fill-rule="nonzero"/><path fill="#000000" d="M 94.730469 54.566406 C 94.730469 55.449219 95.449219 56.167969 96.328125 56.167969 L 120.363281 56.167969 C 121.242188 56.167969 121.960938 55.449219 121.960938 54.566406 C 121.960938 53.679688 121.242188 52.964844 120.363281 52.964844 L 96.328125 52.964844 C 95.449219 52.964844 94.730469 53.679688 94.730469 54.566406 Z M 94.730469 54.566406 " fill-opacity="1" fill-rule="nonzero"/><path fill="#000000" d="M 67.316406 44.125 C 67.628906 44.4375 68.039062 44.59375 68.449219 44.59375 C 68.855469 44.59375 69.265625 44.4375 69.578125 44.125 C 70.203125 43.5 70.203125 42.488281 69.578125 41.859375 L 52.585938 24.832031 C 51.960938 24.207031 50.949219 24.207031 50.324219 24.832031 C 49.703125 25.457031 49.703125 26.46875 50.324219 27.09375 Z M 67.316406 44.125 " fill-opacity="1" fill-rule="nonzero"/><g clip-path="url(#1f58625271)"><path fill="#000000" d="M 79.996094 39.800781 C 80.878906 39.800781 81.59375 39.082031 81.59375 38.199219 L 81.59375 14.113281 C 81.59375 13.230469 80.878906 12.511719 79.996094 12.511719 C 79.113281 12.511719 78.398438 13.230469 78.398438 14.113281 L 78.398438 38.199219 C 78.398438 39.082031 79.113281 39.800781 79.996094 39.800781 Z M 79.996094 39.800781 " fill-opacity="1" fill-rule="nonzero"/></g><path fill="#000000" d="M 91.546875 44.59375 C 91.957031 44.59375 92.363281 44.4375 92.675781 44.125 L 109.667969 27.09375 C 110.292969 26.46875 110.292969 25.457031 109.667969 24.832031 C 109.046875 24.207031 108.035156 24.207031 107.410156 24.832031 L 90.417969 41.859375 C 89.792969 42.488281 89.792969 43.5 90.417969 44.125 C 90.726562 44.4375 91.136719 44.59375 91.546875 44.59375 Z M 91.546875 44.59375 " fill-opacity="1" fill-rule="nonzero"/></svg>